<svg width="14" height="14" viewBox="0 0 14 14" fill="none" xmlns="http://www.w3.org/2000/svg">
<g clip-path="url(#clip0_1187_24)">
<path d="M12.1881 0.823486H10.9528V2.05878C10.9528 2.30584 10.7469 2.47055 10.541 2.47055C10.3352 2.47055 10.1293 2.30584 10.1293 2.05878V0.823486H3.54103V2.05878C3.54103 2.30584 3.33515 2.47055 3.12927 2.47055C2.92339 2.47055 2.7175 2.30584 2.7175 2.05878V0.823486H1.48221C0.864562 0.823486 0.411621 1.35878 0.411621 2.05878V3.54113H13.5881V2.05878C13.5881 1.35878 12.8469 0.823486 12.1881 0.823486ZM0.411621 4.40584V11.9411C0.411621 12.6823 0.864562 13.1764 1.52339 13.1764H12.2293C12.8881 13.1764 13.6293 12.6411 13.6293 11.9411V4.40584H0.411621ZM4.07633 11.3235H3.08809C2.92339 11.3235 2.75868 11.2 2.75868 10.9941V9.96466C2.75868 9.79996 2.88221 9.63525 3.08809 9.63525H4.1175C4.28221 9.63525 4.44692 9.75878 4.44692 9.96466V10.9941C4.40574 11.2 4.28221 11.3235 4.07633 11.3235ZM4.07633 7.6176H3.08809C2.92339 7.6176 2.75868 7.49407 2.75868 7.28819V6.25878C2.75868 6.09407 2.88221 5.92937 3.08809 5.92937H4.1175C4.28221 5.92937 4.44692 6.0529 4.44692 6.25878V7.28819C4.40574 7.49407 4.28221 7.6176 4.07633 7.6176ZM7.37044 11.3235H6.34103C6.17633 11.3235 6.01162 11.2 6.01162 10.9941V9.96466C6.01162 9.79996 6.13515 9.63525 6.34103 9.63525H7.37044C7.53515 9.63525 7.69986 9.75878 7.69986 9.96466V10.9941C7.69986 11.2 7.57633 11.3235 7.37044 11.3235ZM7.37044 7.6176H6.34103C6.17633 7.6176 6.01162 7.49407 6.01162 7.28819V6.25878C6.01162 6.09407 6.13515 5.92937 6.34103 5.92937H7.37044C7.53515 5.92937 7.69986 6.0529 7.69986 6.25878V7.28819C7.69986 7.49407 7.57633 7.6176 7.37044 7.6176ZM10.6646 11.3235H9.63515C9.47044 11.3235 9.30574 11.2 9.30574 10.9941V9.96466C9.30574 9.79996 9.42927 9.63525 9.63515 9.63525H10.6646C10.8293 9.63525 10.994 9.75878 10.994 9.96466V10.9941C10.994 11.2 10.8704 11.3235 10.6646 11.3235ZM10.6646 7.6176H9.63515C9.47044 7.6176 9.30574 7.49407 9.30574 7.28819V6.25878C9.30574 6.09407 9.42927 5.92937 9.63515 5.92937H10.6646C10.8293 5.92937 10.994 6.0529 10.994 6.25878V7.28819C10.994 7.49407 10.8704 7.6176 10.6646 7.6176Z" fill="black"/>
</g>
<defs>
<clipPath id="clip0_1187_24">
<rect width="14" height="14" fill="white"/>
</clipPath>
</defs>
</svg>
