<svg width="14" height="14" viewBox="0 0 14 14" fill="none" xmlns="http://www.w3.org/2000/svg">
<g clip-path="url(#clip0_1187_28)">
<path d="M11.9498 2.05026C10.6276 0.728137 8.86977 0 7 0C5.13023 0 3.37236 0.728137 2.05023 2.05026C0.728109 3.37239 0 5.13023 0 7C0 8.86977 0.728109 10.6276 2.05023 11.9497C3.37236 13.2718 5.13023 14 7 14C8.86977 14 10.6276 13.2719 11.9498 11.9497C13.2719 10.6276 14 8.86977 14 7C14 5.13023 13.2719 3.37236 11.9498 2.05026ZM7 12.626C3.89777 12.626 1.37397 10.1022 1.37397 7C1.37397 6.99491 1.37413 6.98988 1.37416 6.98485C1.37416 6.98357 1.37397 6.98234 1.37397 6.98105C1.37397 6.97889 1.37424 6.97681 1.3743 6.97468C1.38794 3.90964 3.86493 1.41597 6.92355 1.37495C6.92994 1.37465 6.93629 1.374 6.94277 1.374C6.94665 1.374 6.95043 1.37446 6.95428 1.37457C6.96954 1.37446 6.98474 1.374 7.00003 1.374C10.1023 1.374 12.6261 3.89782 12.6261 7.00003C12.6261 10.1022 10.1022 12.626 7 12.626Z" fill="black"/>
<path d="M11.2737 7.33791C11.045 7.33791 10.8595 7.15246 10.8595 6.92371C10.8595 6.69495 11.045 6.5095 11.2737 6.5095H11.773C11.5385 4.21055 9.67405 2.3868 7.35721 2.21558V2.65021C7.35721 2.87896 7.17177 3.06441 6.94301 3.06441C6.71425 3.06441 6.52881 2.87896 6.52881 2.65021V2.22547C4.24626 2.44915 2.42809 4.27904 2.22238 6.56673H2.66951C2.89827 6.56673 3.08371 6.75218 3.08371 6.98094C3.08371 7.20969 2.89827 7.39514 2.66951 7.39514H2.21899C2.40944 9.71966 4.26406 11.58 6.58606 11.7795V11.2544C6.58606 11.0257 6.77151 10.8402 7.00027 10.8402C7.22903 10.8402 7.41447 11.0257 7.41447 11.2544V11.7795C9.75548 11.5783 11.6214 9.68903 11.7858 7.33791H11.2737ZM8.67699 5.90898L7.29317 7.29282C7.21549 7.3705 7.11016 7.41414 7.0003 7.41414C6.89046 7.41414 6.78507 7.3705 6.70742 7.29282L4.29862 4.88403C4.13686 4.72229 4.13686 4.46003 4.29862 4.29827C4.46036 4.1365 4.72262 4.1365 4.88438 4.29827L7.00032 6.41418L8.09128 5.32322C8.25302 5.16145 8.51528 5.16145 8.67704 5.32322C8.83875 5.48496 8.83875 5.74724 8.67699 5.90898Z" fill="black"/>
</g>
<defs>
<clipPath id="clip0_1187_28">
<rect width="14" height="14" fill="white"/>
</clipPath>
</defs>
</svg>
