<svg width="237" height="36" viewBox="0 0 237 36" fill="none" xmlns="http://www.w3.org/2000/svg">
<path d="M4.58533 23.2313C5.22223 23.8627 5.72582 24.4302 6.09611 24.9481C6.3331 24.6573 6.5923 24.3451 6.87372 24.0046C7.15514 23.664 7.44396 23.3448 7.73279 23.0397C8.01421 22.7347 8.29563 22.4438 8.56224 22.1742C8.82885 21.9046 9.06583 21.6989 9.26579 21.5712C9.09546 21.4719 8.86588 21.3087 8.56224 21.0675C8.2586 20.8263 7.94756 20.5496 7.62911 20.2516C7.31066 19.9466 6.99962 19.6344 6.69598 19.3081C6.39234 18.9888 6.17758 18.7121 6.03687 18.4922C5.83691 18.7831 5.59992 19.0881 5.33332 19.4074C5.06671 19.7266 4.78529 20.0388 4.50387 20.3509C4.22245 20.6631 3.93362 20.9398 3.6448 21.1952C3.35597 21.4506 3.11898 21.6421 2.91162 21.7769C3.393 22.1104 3.94843 22.5999 4.58533 23.2313Z" fill="#C71717"/>
<path d="M4.58289 30.0634C5.21979 30.709 5.72338 31.2695 6.09367 31.7519C6.33066 31.461 6.58986 31.1489 6.87128 30.8083C7.1527 30.4678 7.44152 30.1485 7.73035 29.8435C8.01177 29.5384 8.29319 29.2475 8.5598 28.978C8.82641 28.7084 9.06339 28.5026 9.26335 28.3749C9.09302 28.2756 8.86344 28.1053 8.5598 27.8712C8.25616 27.63 7.94512 27.3533 7.62667 27.0483C7.30822 26.7432 6.99718 26.431 6.69354 26.1047C6.3899 25.7854 6.17514 25.5088 6.03443 25.2817C5.83447 25.5726 5.59748 25.8777 5.33087 26.1969C5.06427 26.5162 4.78285 26.8283 4.50143 27.1405C4.22001 27.4526 3.93118 27.7293 3.64235 27.9847C3.35353 28.2401 3.11654 28.4388 2.90918 28.5665C3.39056 28.9212 3.94599 29.4178 4.58289 30.0634Z" fill="#C71717"/>
<path d="M4.60446 16.4203C5.22654 17.0517 5.72273 17.6192 6.09302 18.1371C6.55958 17.5554 7.10761 16.9169 7.7297 16.2074C8.35178 15.498 8.86278 15.0227 9.2627 14.7602C9.09236 14.6609 8.86278 14.4977 8.55915 14.2565C8.25551 14.0153 7.94447 13.7386 7.62602 13.4335C7.30757 13.1285 6.99652 12.8163 6.69289 12.4899C6.38925 12.1707 6.17448 11.894 6.03377 11.667C5.83382 11.9295 5.59683 12.2133 5.33022 12.5396C5.06361 12.8589 4.78219 13.171 4.50077 13.4832C4.21935 13.7953 3.93793 14.072 3.67132 14.3274C3.40472 14.5828 3.16773 14.7815 2.96777 14.9092C3.44174 15.2923 3.98237 15.796 4.60446 16.4203Z" fill="#C71717"/>
<path d="M57.0246 29.368C56.5358 28.5947 55.8989 27.9208 55.1065 27.339C54.3141 26.7644 53.4328 26.3103 52.4626 25.9911C51.4851 25.6718 50.5149 25.5086 49.5373 25.5086C48.5302 25.5086 47.286 25.686 45.8048 26.0407C45.1013 25.459 44.6051 24.9695 44.3163 24.5651C44.0348 24.1678 43.8867 23.5931 43.8867 22.8553V11.4616C43.8867 10.7522 44.1237 10.2697 44.5903 10.0143C45.0643 9.75895 45.5901 9.51774 46.1751 9.29071C46.7602 9.06369 47.2934 8.75863 47.76 8.37553C48.2339 7.98533 48.4635 7.33264 48.4635 6.39617C48.4635 5.14045 48.1525 4.09048 47.5304 3.23914C46.9083 2.38781 46.2196 1.71383 45.4642 1.21013C44.7088 0.713513 44.0126 0.37298 43.3757 0.195619C42.7388 0.0182574 42.4204 -0.0384978 42.4204 0.0253523C42.4204 0.0892024 42.5315 0.188525 42.7462 0.316226C42.9684 0.443926 43.198 0.635475 43.4498 0.89797C43.7016 1.15337 43.9386 1.47972 44.1533 1.86282C44.3755 2.25301 44.4792 2.74962 44.4792 3.35975C44.4792 4.23237 44.22 4.956 43.7016 5.53065C43.1832 6.1124 42.6055 6.58772 41.9612 6.95664C41.3243 7.32555 40.7467 7.62351 40.2209 7.85054C39.6951 8.07756 39.4433 8.26911 39.4433 8.43228V21.1597C39.4433 21.6067 39.5099 21.9969 39.6432 22.3161C39.7765 22.6354 40.0505 22.9688 40.4727 23.3023C40.8948 23.6428 41.4873 24.0259 42.2649 24.4587C43.0351 24.8914 44.0645 25.4661 45.3383 26.1755C43.8571 26.5302 42.5981 26.9204 41.5613 27.3603C40.5245 27.8002 39.4729 28.3819 38.4138 29.1197C37.3548 29.8575 36.4883 30.7798 35.8218 31.8724C35.8218 31.9362 35.6737 31.6808 35.3701 31.0991C35.0664 30.5173 34.9183 29.7653 34.9183 28.8288V16.9102C34.9183 16.2362 34.7776 15.7254 34.4888 15.3919C34.2074 15.0514 33.8815 14.7251 33.5334 14.3987C33.178 14.0795 32.8521 13.7247 32.5485 13.3346C32.2448 12.9515 32.0967 12.3697 32.0967 11.5964C32.2004 11.5964 32.4744 11.5326 32.9262 11.4049C33.3779 11.2772 33.8667 11.1211 34.3851 10.9437C34.9109 10.7664 35.5848 10.5464 36.4291 10.291C36.7327 10.291 36.9697 10.3691 37.1326 10.5322C37.303 10.6954 37.4289 10.8657 37.5103 11.0359C37.5918 11.2133 37.651 11.3836 37.6881 11.5397C37.7251 11.7028 37.7547 11.7809 37.7918 11.7809C37.8288 11.7809 37.8584 11.5468 37.8954 11.0785C37.9325 10.6103 37.851 10.0995 37.6733 9.53193C37.4881 8.97146 37.1252 8.45357 36.592 7.98533C36.0514 7.5171 35.2294 7.28298 34.1185 7.28298C33.8149 7.28298 33.4001 7.35393 32.8595 7.50291C32.3189 7.6448 31.719 7.80088 31.0451 7.96405C30.8525 8.01371 30.66 8.05628 30.4674 8.09884C27.2978 8.63093 27.7865 8.49613 26.7201 8.52451C25.6759 8.55289 24.8612 8.24073 23.5356 7.82216C22.21 7.40359 20.8103 6.94954 19.3291 6.47421C17.848 5.99179 16.3224 5.53774 14.7449 5.11917C13.1675 4.7006 11.6049 4.49486 10.0571 4.49486C8.27968 4.49486 6.78371 4.7006 5.57656 5.09789C4.36942 5.50227 3.38445 6.02017 2.62906 6.66576C1.87367 7.31136 1.32563 8.01371 0.992374 8.78701C0.659113 9.5603 0.488781 10.3336 0.488781 11.1069C0.488781 11.6248 0.614682 12.0788 0.866479 12.4832C1.11828 12.8876 1.38488 13.221 1.67371 13.4977C1.95513 13.7744 2.21433 13.9589 2.4291 14.0511C2.64387 14.1504 2.72533 14.1504 2.65868 14.0511C2.38466 13.6609 2.11806 13.2849 1.85145 12.916C1.58484 12.5471 1.45153 12.0079 1.45153 11.2984C1.45153 10.6883 1.63668 10.1491 2.00697 9.68091C2.37726 9.21268 2.86604 8.82248 3.46591 8.49613C4.07319 8.17688 4.75452 7.93567 5.53213 7.7725C6.30233 7.60933 7.09475 7.53129 7.90198 7.53129C9.04247 7.53129 10.1237 7.65189 11.1235 7.8931C12.1307 8.13432 13.0786 8.42519 13.9747 8.75863C14.8634 9.09916 15.6781 9.44679 16.4186 9.8228C17.1592 10.1917 17.8109 10.5039 18.3812 10.7664L11.279 15.8318C11.479 16.6406 11.5827 17.1797 11.5827 17.4706V29.0062C11.5827 29.8434 11.3383 30.6025 10.8495 31.2764C10.3607 31.9504 9.76084 32.5463 9.03507 33.0642C8.31671 33.5821 7.53169 33.9723 6.69483 34.249C5.85057 34.5186 5.06556 34.6605 4.32498 34.6605C4.25833 34.6605 4.02134 34.6534 3.61403 34.6392C3.21411 34.625 2.78458 34.5328 2.33282 34.3767C1.88107 34.2135 1.47375 33.9581 1.12568 33.6034C0.770203 33.2487 0.599867 32.7521 0.599867 32.1065C0.599867 31.5957 0.777609 31.1487 1.12568 30.7798C1.48116 30.4109 1.80701 30.1413 2.11065 29.9852C2.41429 29.8221 2.57722 29.7298 2.61424 29.6944C2.54759 29.6944 2.36985 29.7228 2.08843 29.7937C1.80701 29.8575 1.51078 29.9923 1.20714 30.2052C0.903506 30.4109 0.629491 30.7018 0.377694 31.0707C0.125897 31.4396 0 31.9362 0 32.5463C0 33.5112 0.392507 34.2561 1.18493 34.7882C1.96994 35.3203 3.00675 35.5828 4.28055 35.5828C5.92463 35.5828 7.43542 35.2706 8.81289 34.6392C10.1904 34.0078 11.3827 33.3125 12.3899 32.5393C13.3971 31.766 14.1747 31.0352 14.7301 30.34C15.2856 29.6518 15.5596 29.219 15.5596 29.063V24.4303C15.8632 24.1749 16.1002 24.0401 16.2631 24.0401C16.5001 24.0401 16.7667 24.1039 17.0704 24.2316C17.374 24.3593 17.685 24.5154 18.0035 24.6928C18.3219 24.8701 18.6256 25.0262 18.907 25.1539C19.1884 25.2816 19.4328 25.3455 19.6402 25.3455C19.7735 25.3455 19.9512 25.2461 20.166 25.0546C20.3807 24.863 20.6473 24.6289 20.9436 24.3522C21.2472 24.0827 21.5805 23.8131 21.9508 23.5577C22.3211 23.3023 22.721 23.1036 23.1579 22.9759C23.3282 22.9121 23.232 22.7489 22.8839 22.4935C22.5358 22.2381 22.1211 21.9614 21.6471 21.6705C21.1732 21.3797 20.5066 20.9966 19.6328 20.5141C19.4328 20.5141 19.1069 20.6986 18.6774 21.0675C18.2405 21.4364 17.7887 21.8408 17.3147 22.2736C16.8482 22.7063 16.2557 23.281 15.5522 23.9904V16.8605C15.5522 16.0234 15.7373 15.243 16.1076 14.5193C16.4779 13.7957 16.8704 13.1785 17.2925 12.6606C17.7147 12.1427 18.2923 11.6035 19.0329 11.0218C19.2995 11.1495 19.692 11.2488 20.2178 11.3126C20.7362 11.3765 21.2546 11.4261 21.7582 11.4545C22.2618 11.4829 22.6988 11.5042 23.069 11.5042H23.6245V29.893C23.6245 30.1484 23.5134 30.3542 23.2986 30.496C23.0839 30.6379 22.8469 30.7585 22.5951 30.8579C22.3433 30.9572 22.1063 31.0494 21.8915 31.1487C21.6768 31.2481 21.5657 31.3403 21.5657 31.4396C21.5657 31.5389 21.6397 31.6312 21.7878 31.7305C21.936 31.8298 22.1137 31.9149 22.3137 31.993C22.5136 32.071 22.7358 32.1632 22.9728 32.2555C23.2098 32.3548 23.4097 32.4683 23.58 32.596C23.817 32.7876 24.0318 33.0288 24.2318 33.3196C24.4317 33.6105 24.6094 33.8801 24.7576 34.1426C24.9057 34.4051 25.0612 34.625 25.2093 34.8166C25.3574 35.0081 25.5204 35.1074 25.6907 35.1074C25.861 35.1074 26.0091 35.0223 26.1424 34.8449C26.2758 34.6676 26.4091 34.4548 26.5498 34.1923C26.6831 33.9369 26.8312 33.6673 27.0015 33.3977C27.1719 33.1281 27.3866 32.9082 27.6532 32.745C27.8532 32.6173 28.105 32.5109 28.4086 32.4328C28.7123 32.3548 29.0085 32.2909 29.2899 32.2413C29.5713 32.1916 29.8083 32.142 29.9935 32.0994C30.1786 32.0497 30.2675 31.9788 30.2675 31.8866C30.2675 31.7234 30.1268 31.546 29.8379 31.3545C29.5565 31.1629 29.2529 30.9572 28.9344 30.7302C28.616 30.5031 28.3123 30.2477 28.0309 29.9569C27.7421 29.666 27.6014 29.3255 27.6014 28.9424V11.8731C28.5271 11.8447 29.7491 11.6106 30.8007 11.7028V25.2674C30.8007 26.0053 30.9932 26.7644 31.3783 27.5377C31.7634 28.311 32.2522 29.0559 32.8373 29.7795C33.4223 30.5031 34.0666 31.1842 34.748 31.8298C35.4367 32.4754 36.0736 33.0217 36.6661 33.4686C37.2511 33.9156 37.7399 34.2632 38.125 34.5044C38.5101 34.7456 38.7027 34.8166 38.7027 34.7243C38.7027 34.4051 38.9397 34.0149 39.4062 33.5679C39.8728 33.121 40.5097 32.6599 41.2947 32.1916C42.0871 31.7234 42.9758 31.2552 43.9682 30.794C44.9606 30.3258 45.9752 29.9143 47.0194 29.5596C48.0636 29.2049 49.0782 28.914 50.0706 28.6941C51.0629 28.467 51.9442 28.3535 52.7144 28.3535C53.3217 28.3535 53.8697 28.4812 54.3807 28.7366C54.8843 28.992 55.3139 29.3255 55.6693 29.7298C56.0248 30.1342 56.2914 30.5741 56.4766 31.0565C56.6617 31.5389 56.7506 32.0214 56.7506 32.5038C56.7506 32.9862 56.6469 33.4119 56.447 33.7808C56.247 34.1497 56.0174 34.4689 55.7656 34.7243C55.5138 34.9797 55.2768 35.1926 55.0621 35.3487C54.8399 35.5118 54.7362 35.6395 54.7362 35.7388C54.7362 35.8382 54.8991 35.8169 55.2176 35.6892C55.536 35.5615 55.8841 35.3345 56.2544 35.0152C56.6247 34.696 56.9654 34.2703 57.2912 33.7382C57.6097 33.2061 57.7726 32.5889 57.7726 31.8795C57.7504 30.9785 57.5134 30.1413 57.0246 29.368Z" fill="#C71717"/>
<path d="M47.5456 12.7808C47.2642 13.022 47.0346 13.1922 46.8643 13.2845C47.0642 13.4122 47.3012 13.6179 47.5678 13.8875C47.8344 14.1642 48.1158 14.4622 48.3973 14.7814C48.6861 15.1007 48.9675 15.4341 49.2563 15.7746C49.5452 16.1152 49.8044 16.4273 50.0339 16.7182C50.2043 16.4628 50.419 16.179 50.693 15.874C50.9597 15.5689 51.2411 15.2709 51.5225 14.98C51.8113 14.6892 52.0927 14.4196 52.3816 14.1571C52.663 13.9017 52.9296 13.6747 53.1592 13.4831C52.9592 13.3554 52.7148 13.1639 52.426 12.9014C52.1446 12.646 51.8558 12.3622 51.5669 12.0571C51.2855 11.7521 51.0041 11.4399 50.7375 11.1136C50.4709 10.7943 50.2487 10.5034 50.0858 10.248C49.9154 10.4751 49.6933 10.7376 49.4044 11.0426C49.123 11.3477 48.8046 11.6527 48.4713 11.9578C48.1455 12.2629 47.8344 12.5325 47.5456 12.7808Z" fill="#C71717"/>
<path d="M51.5812 19.0034C51.2998 18.6984 51.0183 18.3862 50.7517 18.0599C50.4851 17.7406 50.2629 17.4497 50.1 17.1943C49.9297 17.4214 49.7075 17.6839 49.4187 17.9889C49.1373 18.294 48.8188 18.599 48.4856 18.9041C48.1523 19.2092 47.8413 19.4858 47.5524 19.7271C47.271 19.9683 47.0414 20.1385 46.8711 20.2308C47.0711 20.3585 47.308 20.5642 47.5746 20.8338C47.8413 21.1105 48.1227 21.4084 48.4041 21.7277C48.6929 22.0469 48.9743 22.3804 49.2632 22.7209C49.552 23.0615 49.8112 23.3736 50.0408 23.6645C50.2111 23.4091 50.4259 23.1253 50.6999 22.8202C50.9665 22.5152 51.2479 22.2172 51.5293 21.9263C51.8182 21.6355 52.0996 21.3659 52.3884 21.1034C52.6698 20.848 52.9364 20.621 53.166 20.4294C52.9661 20.3017 52.7217 20.1102 52.4328 19.8477C52.1514 19.5923 51.8626 19.3085 51.5812 19.0034Z" fill="#C71717"/>
<path d="M78.93 15L83.34 5.2H85.132L89.556 15H87.652L83.858 6.166H84.586L80.806 15H78.93ZM80.96 12.732L81.45 11.304H86.742L87.232 12.732H80.96ZM90.8023 15V5.2H94.8343C95.7023 5.2 96.4443 5.34 97.0603 5.62C97.6857 5.9 98.1663 6.30133 98.5023 6.824C98.8383 7.34667 99.0063 7.96733 99.0063 8.686C99.0063 9.40467 98.8383 10.0253 98.5023 10.548C98.1663 11.0613 97.6857 11.458 97.0603 11.738C96.4443 12.0087 95.7023 12.144 94.8343 12.144H91.8103L92.6223 11.318V15H90.8023ZM97.2143 15L94.7363 11.444H96.6823L99.1743 15H97.2143ZM92.6223 11.514L91.8103 10.646H94.7503C95.553 10.646 96.155 10.4733 96.5563 10.128C96.967 9.78267 97.1723 9.302 97.1723 8.686C97.1723 8.06067 96.967 7.58 96.5563 7.244C96.155 6.908 95.553 6.74 94.7503 6.74H91.8103L92.6223 5.844V11.514ZM102.894 15V6.74H99.6458V5.2H107.962V6.74H104.714V15H102.894ZM111.008 9.274H115.88V10.772H111.008V9.274ZM111.148 13.474H116.678V15H109.328V5.2H116.482V6.726H111.148V13.474ZM118.707 15V5.2H120.205L124.489 12.354H123.705L127.919 5.2H129.417L129.431 15H127.709L127.695 7.902H128.059L124.475 13.88H123.663L120.023 7.902H120.443V15H118.707ZM138.845 15L134.561 5.2H136.535L140.357 14.062H139.223L143.087 5.2H144.907L140.637 15H138.845ZM150.424 15.14C149.658 15.14 148.954 15.014 148.31 14.762C147.666 14.51 147.106 14.16 146.63 13.712C146.154 13.2547 145.785 12.7227 145.524 12.116C145.262 11.5 145.132 10.828 145.132 10.1C145.132 9.372 145.262 8.70467 145.524 8.098C145.785 7.482 146.154 6.95 146.63 6.502C147.106 6.04467 147.666 5.69 148.31 5.438C148.954 5.186 149.654 5.06 150.41 5.06C151.175 5.06 151.875 5.186 152.51 5.438C153.154 5.69 153.714 6.04467 154.19 6.502C154.666 6.95 155.034 7.482 155.296 8.098C155.557 8.70467 155.688 9.372 155.688 10.1C155.688 10.828 155.557 11.5 155.296 12.116C155.034 12.732 154.666 13.264 154.19 13.712C153.714 14.16 153.154 14.51 152.51 14.762C151.875 15.014 151.18 15.14 150.424 15.14ZM150.41 13.544C150.904 13.544 151.362 13.46 151.782 13.292C152.202 13.124 152.566 12.886 152.874 12.578C153.182 12.2607 153.42 11.8967 153.588 11.486C153.765 11.066 153.854 10.604 153.854 10.1C153.854 9.596 153.765 9.13867 153.588 8.728C153.42 8.308 153.182 7.944 152.874 7.636C152.566 7.31867 152.202 7.076 151.782 6.908C151.362 6.74 150.904 6.656 150.41 6.656C149.915 6.656 149.458 6.74 149.038 6.908C148.627 7.076 148.263 7.31867 147.946 7.636C147.638 7.944 147.395 8.308 147.218 8.728C147.05 9.13867 146.966 9.596 146.966 10.1C146.966 10.5947 147.05 11.052 147.218 11.472C147.395 11.892 147.638 12.2607 147.946 12.578C148.254 12.886 148.618 13.124 149.038 13.292C149.458 13.46 149.915 13.544 150.41 13.544ZM160.2 15L155.916 5.2H157.89L161.712 14.062H160.578L164.442 5.2H166.262L161.992 15H160.2ZM171.723 15.14C170.976 15.14 170.281 15.0187 169.637 14.776C169.002 14.524 168.447 14.174 167.971 13.726C167.504 13.2687 167.14 12.732 166.879 12.116C166.618 11.5 166.487 10.828 166.487 10.1C166.487 9.372 166.618 8.7 166.879 8.084C167.14 7.468 167.509 6.936 167.985 6.488C168.461 6.03067 169.016 5.68067 169.651 5.438C170.286 5.186 170.981 5.06 171.737 5.06C172.54 5.06 173.272 5.2 173.935 5.48C174.598 5.75067 175.158 6.15667 175.615 6.698L174.439 7.804C174.084 7.42133 173.688 7.13667 173.249 6.95C172.81 6.754 172.334 6.656 171.821 6.656C171.308 6.656 170.836 6.74 170.407 6.908C169.987 7.076 169.618 7.314 169.301 7.622C168.993 7.93 168.75 8.294 168.573 8.714C168.405 9.134 168.321 9.596 168.321 10.1C168.321 10.604 168.405 11.066 168.573 11.486C168.75 11.906 168.993 12.27 169.301 12.578C169.618 12.886 169.987 13.124 170.407 13.292C170.836 13.46 171.308 13.544 171.821 13.544C172.334 13.544 172.81 13.4507 173.249 13.264C173.688 13.068 174.084 12.774 174.439 12.382L175.615 13.502C175.158 14.034 174.598 14.44 173.935 14.72C173.272 15 172.535 15.14 171.723 15.14ZM184.247 5.2H186.067V15H184.247V5.2ZM179.179 15H177.359V5.2H179.179V15ZM184.387 10.8H179.025V9.246H184.387V10.8ZM190.373 9.274H195.245V10.772H190.373V9.274ZM190.513 13.474H196.043V15H188.693V5.2H195.847V6.726H190.513V13.474ZM198.072 15V5.2H199.57L205.716 12.746H204.974V5.2H206.78V15H205.282L199.136 7.454H199.878V15H198.072ZM211.03 12.69L210.932 10.534L216.07 5.2H218.114L213.844 9.736L212.836 10.842L211.03 12.69ZM209.406 15V5.2H211.226V15H209.406ZM216.238 15L212.486 10.534L213.69 9.204L218.366 15H216.238ZM223.842 15.14C223.076 15.14 222.372 15.014 221.728 14.762C221.084 14.51 220.524 14.16 220.048 13.712C219.572 13.2547 219.203 12.7227 218.942 12.116C218.68 11.5 218.55 10.828 218.55 10.1C218.55 9.372 218.68 8.70467 218.942 8.098C219.203 7.482 219.572 6.95 220.048 6.502C220.524 6.04467 221.084 5.69 221.728 5.438C222.372 5.186 223.072 5.06 223.828 5.06C224.593 5.06 225.293 5.186 225.928 5.438C226.572 5.69 227.132 6.04467 227.608 6.502C228.084 6.95 228.452 7.482 228.714 8.098C228.975 8.70467 229.106 9.372 229.106 10.1C229.106 10.828 228.975 11.5 228.714 12.116C228.452 12.732 228.084 13.264 227.608 13.712C227.132 14.16 226.572 14.51 225.928 14.762C225.293 15.014 224.598 15.14 223.842 15.14ZM223.828 13.544C224.322 13.544 224.78 13.46 225.2 13.292C225.62 13.124 225.984 12.886 226.292 12.578C226.6 12.2607 226.838 11.8967 227.006 11.486C227.183 11.066 227.272 10.604 227.272 10.1C227.272 9.596 227.183 9.13867 227.006 8.728C226.838 8.308 226.6 7.944 226.292 7.636C225.984 7.31867 225.62 7.076 225.2 6.908C224.78 6.74 224.322 6.656 223.828 6.656C223.333 6.656 222.876 6.74 222.456 6.908C222.045 7.076 221.681 7.31867 221.364 7.636C221.056 7.944 220.813 8.308 220.636 8.728C220.468 9.13867 220.384 9.596 220.384 10.1C220.384 10.5947 220.468 11.052 220.636 11.472C220.813 11.892 221.056 12.2607 221.364 12.578C221.672 12.886 222.036 13.124 222.456 13.292C222.876 13.46 223.333 13.544 223.828 13.544Z" fill="black"/>
<path d="M80.254 31V23.3H83.136C83.7887 23.3 84.3497 23.4063 84.819 23.619C85.2883 23.8243 85.6477 24.125 85.897 24.521C86.1537 24.9097 86.282 25.3827 86.282 25.94C86.282 26.4827 86.1537 26.952 85.897 27.348C85.6477 27.7367 85.2883 28.0373 84.819 28.25C84.3497 28.4627 83.7887 28.569 83.136 28.569H80.705L81.068 28.184V31H80.254ZM81.068 28.25L80.705 27.854H83.114C83.884 27.854 84.467 27.689 84.863 27.359C85.2663 27.0217 85.468 26.5487 85.468 25.94C85.468 25.324 85.2663 24.8473 84.863 24.51C84.467 24.1727 83.884 24.004 83.114 24.004H80.705L81.068 23.619V28.25ZM88.0421 31V23.3H90.9241C91.5768 23.3 92.1378 23.4063 92.6071 23.619C93.0764 23.8243 93.4358 24.125 93.6851 24.521C93.9418 24.9097 94.0701 25.3827 94.0701 25.94C94.0701 26.4827 93.9418 26.952 93.6851 27.348C93.4358 27.7367 93.0764 28.0373 92.6071 28.25C92.1378 28.4553 91.5768 28.558 90.9241 28.558H88.4931L88.8561 28.184V31H88.0421ZM93.3001 31L91.3201 28.206H92.2001L94.1911 31H93.3001ZM88.8561 28.25L88.4931 27.865H90.9021C91.6721 27.865 92.2551 27.6963 92.6511 27.359C93.0544 27.0217 93.2561 26.5487 93.2561 25.94C93.2561 25.324 93.0544 24.8473 92.6511 24.51C92.2551 24.1727 91.6721 24.004 90.9021 24.004H88.4931L88.8561 23.619V28.25ZM96.7173 26.743H100.787V27.436H96.7173V26.743ZM96.8053 30.296H101.436V31H95.9913V23.3H101.271V24.004H96.8053V30.296ZM105.473 31.066C104.901 31.066 104.351 30.9743 103.823 30.791C103.302 30.6003 102.899 30.3583 102.613 30.065L102.932 29.438C103.203 29.702 103.566 29.9257 104.021 30.109C104.483 30.285 104.967 30.373 105.473 30.373C105.957 30.373 106.349 30.3143 106.65 30.197C106.958 30.0723 107.181 29.9073 107.321 29.702C107.467 29.4967 107.541 29.2693 107.541 29.02C107.541 28.7193 107.453 28.4773 107.277 28.294C107.108 28.1107 106.884 27.9677 106.606 27.865C106.327 27.755 106.019 27.6597 105.682 27.579C105.344 27.4983 105.007 27.414 104.67 27.326C104.332 27.2307 104.021 27.106 103.735 26.952C103.456 26.798 103.229 26.5963 103.053 26.347C102.884 26.0903 102.8 25.7567 102.8 25.346C102.8 24.9647 102.899 24.6163 103.097 24.301C103.302 23.9783 103.614 23.7217 104.032 23.531C104.45 23.333 104.985 23.234 105.638 23.234C106.07 23.234 106.499 23.2963 106.925 23.421C107.35 23.5383 107.717 23.7033 108.025 23.916L107.75 24.565C107.42 24.345 107.068 24.1837 106.694 24.081C106.327 23.9783 105.971 23.927 105.627 23.927C105.165 23.927 104.783 23.9893 104.483 24.114C104.182 24.2387 103.958 24.4073 103.812 24.62C103.672 24.8253 103.603 25.06 103.603 25.324C103.603 25.6247 103.687 25.8667 103.856 26.05C104.032 26.2333 104.259 26.3763 104.538 26.479C104.824 26.5817 105.135 26.6733 105.473 26.754C105.81 26.8347 106.144 26.9227 106.474 27.018C106.811 27.1133 107.119 27.238 107.398 27.392C107.684 27.5387 107.911 27.7367 108.08 27.986C108.256 28.2353 108.344 28.5617 108.344 28.965C108.344 29.339 108.241 29.6873 108.036 30.01C107.83 30.3253 107.515 30.582 107.09 30.78C106.672 30.9707 106.133 31.066 105.473 31.066ZM110.843 26.743H114.913V27.436H110.843V26.743ZM110.931 30.296H115.562V31H110.117V23.3H115.397V24.004H110.931V30.296ZM117.476 31V23.3H118.147L123.46 29.988H123.108V23.3H123.911V31H123.24L117.938 24.312H118.29V31H117.476ZM127.92 31V24.004H125.214V23.3H131.44V24.004H128.734V31H127.92ZM131.122 31L134.642 23.3H135.445L138.965 31H138.107L134.873 23.773H135.203L131.969 31H131.122ZM132.508 28.943L132.75 28.283H137.227L137.469 28.943H132.508ZM141.348 31V24.004H138.642V23.3H144.868V24.004H142.162V31H141.348ZM146.168 31V23.3H146.982V31H146.168ZM152.853 31.066C152.274 31.066 151.735 30.9707 151.236 30.78C150.745 30.582 150.316 30.307 149.949 29.955C149.59 29.5957 149.308 29.1813 149.102 28.712C148.904 28.2353 148.805 27.7147 148.805 27.15C148.805 26.5853 148.904 26.0683 149.102 25.599C149.308 25.1223 149.59 24.708 149.949 24.356C150.316 23.9967 150.745 23.7217 151.236 23.531C151.728 23.333 152.267 23.234 152.853 23.234C153.433 23.234 153.968 23.333 154.459 23.531C154.951 23.7217 155.376 23.993 155.735 24.345C156.102 24.697 156.384 25.1113 156.582 25.588C156.788 26.0647 156.89 26.5853 156.89 27.15C156.89 27.7147 156.788 28.2353 156.582 28.712C156.384 29.1887 156.102 29.603 155.735 29.955C155.376 30.307 154.951 30.582 154.459 30.78C153.968 30.9707 153.433 31.066 152.853 31.066ZM152.853 30.34C153.315 30.34 153.741 30.263 154.129 30.109C154.525 29.9477 154.866 29.724 155.152 29.438C155.446 29.1447 155.673 28.8073 155.834 28.426C155.996 28.0373 156.076 27.612 156.076 27.15C156.076 26.688 155.996 26.2663 155.834 25.885C155.673 25.4963 155.446 25.159 155.152 24.873C154.866 24.5797 154.525 24.356 154.129 24.202C153.741 24.0407 153.315 23.96 152.853 23.96C152.391 23.96 151.962 24.0407 151.566 24.202C151.17 24.356 150.826 24.5797 150.532 24.873C150.246 25.159 150.019 25.4963 149.85 25.885C149.689 26.2663 149.608 26.688 149.608 27.15C149.608 27.6047 149.689 28.0263 149.85 28.415C150.019 28.8037 150.246 29.1447 150.532 29.438C150.826 29.724 151.17 29.9477 151.566 30.109C151.962 30.263 152.391 30.34 152.853 30.34ZM158.715 31V23.3H159.386L164.699 29.988H164.347V23.3H165.15V31H164.479L159.177 24.312H159.529V31H158.715ZM170.542 31V23.3H173.677C174.498 23.3 175.217 23.465 175.833 23.795C176.456 24.1177 176.94 24.5687 177.285 25.148C177.63 25.7273 177.802 26.3947 177.802 27.15C177.802 27.9053 177.63 28.5727 177.285 29.152C176.94 29.7313 176.456 30.186 175.833 30.516C175.217 30.8387 174.498 31 173.677 31H170.542ZM171.356 30.296H173.633C174.315 30.296 174.905 30.164 175.404 29.9C175.91 29.6287 176.302 29.2583 176.581 28.789C176.86 28.3123 176.999 27.766 176.999 27.15C176.999 26.5267 176.86 25.9803 176.581 25.511C176.302 25.0417 175.91 24.675 175.404 24.411C174.905 24.1397 174.315 24.004 173.633 24.004H171.356V30.296ZM180.356 26.743H184.426V27.436H180.356V26.743ZM180.444 30.296H185.075V31H179.63V23.3H184.91V24.004H180.444V30.296ZM189.111 31.066C188.539 31.066 187.989 30.9743 187.461 30.791C186.941 30.6003 186.537 30.3583 186.251 30.065L186.57 29.438C186.842 29.702 187.205 29.9257 187.659 30.109C188.121 30.285 188.605 30.373 189.111 30.373C189.595 30.373 189.988 30.3143 190.288 30.197C190.596 30.0723 190.82 29.9073 190.959 29.702C191.106 29.4967 191.179 29.2693 191.179 29.02C191.179 28.7193 191.091 28.4773 190.915 28.294C190.747 28.1107 190.523 27.9677 190.244 27.865C189.966 27.755 189.658 27.6597 189.32 27.579C188.983 27.4983 188.646 27.414 188.308 27.326C187.971 27.2307 187.659 27.106 187.373 26.952C187.095 26.798 186.867 26.5963 186.691 26.347C186.523 26.0903 186.438 25.7567 186.438 25.346C186.438 24.9647 186.537 24.6163 186.735 24.301C186.941 23.9783 187.252 23.7217 187.67 23.531C188.088 23.333 188.624 23.234 189.276 23.234C189.709 23.234 190.138 23.2963 190.563 23.421C190.989 23.5383 191.355 23.7033 191.663 23.916L191.388 24.565C191.058 24.345 190.706 24.1837 190.332 24.081C189.966 23.9783 189.61 23.927 189.265 23.927C188.803 23.927 188.422 23.9893 188.121 24.114C187.821 24.2387 187.597 24.4073 187.45 24.62C187.311 24.8253 187.241 25.06 187.241 25.324C187.241 25.6247 187.326 25.8667 187.494 26.05C187.67 26.2333 187.898 26.3763 188.176 26.479C188.462 26.5817 188.774 26.6733 189.111 26.754C189.449 26.8347 189.782 26.9227 190.112 27.018C190.45 27.1133 190.758 27.238 191.036 27.392C191.322 27.5387 191.55 27.7367 191.718 27.986C191.894 28.2353 191.982 28.5617 191.982 28.965C191.982 29.339 191.88 29.6873 191.674 30.01C191.469 30.3253 191.154 30.582 190.728 30.78C190.31 30.9707 189.771 31.066 189.111 31.066ZM193.756 31V23.3H194.57V31H193.756ZM197.075 31V23.3H197.746L203.059 29.988H202.707V23.3H203.51V31H202.839L197.537 24.312H197.889V31H197.075ZM209.401 31.066C208.814 31.066 208.271 30.9707 207.773 30.78C207.281 30.582 206.852 30.307 206.486 29.955C206.126 29.603 205.844 29.1887 205.639 28.712C205.441 28.2353 205.342 27.7147 205.342 27.15C205.342 26.5853 205.441 26.0647 205.639 25.588C205.844 25.1113 206.13 24.697 206.497 24.345C206.863 23.993 207.292 23.7217 207.784 23.531C208.282 23.333 208.825 23.234 209.412 23.234C209.998 23.234 210.534 23.3257 211.018 23.509C211.509 23.6923 211.927 23.971 212.272 24.345L211.766 24.862C211.443 24.5393 211.087 24.3083 210.699 24.169C210.31 24.0297 209.892 23.96 209.445 23.96C208.968 23.96 208.528 24.0407 208.125 24.202C207.729 24.356 207.38 24.5797 207.08 24.873C206.786 25.159 206.555 25.4963 206.387 25.885C206.225 26.2663 206.145 26.688 206.145 27.15C206.145 27.6047 206.225 28.0263 206.387 28.415C206.555 28.8037 206.786 29.1447 207.08 29.438C207.38 29.724 207.729 29.9477 208.125 30.109C208.528 30.263 208.964 30.34 209.434 30.34C209.874 30.34 210.288 30.274 210.677 30.142C211.073 30.01 211.436 29.7863 211.766 29.471L212.228 30.087C211.861 30.4097 211.432 30.6553 210.941 30.824C210.449 30.9853 209.936 31.066 209.401 31.066ZM211.447 29.988V27.15H212.228V30.087L211.447 29.988ZM215.257 26.743H219.327V27.436H215.257V26.743ZM215.345 30.296H219.976V31H214.531V23.3H219.811V24.004H215.345V30.296ZM221.89 31V23.3H224.772C225.424 23.3 225.985 23.4063 226.455 23.619C226.924 23.8243 227.283 24.125 227.533 24.521C227.789 24.9097 227.918 25.3827 227.918 25.94C227.918 26.4827 227.789 26.952 227.533 27.348C227.283 27.7367 226.924 28.0373 226.455 28.25C225.985 28.4553 225.424 28.558 224.772 28.558H222.341L222.704 28.184V31H221.89ZM227.148 31L225.168 28.206H226.048L228.039 31H227.148ZM222.704 28.25L222.341 27.865H224.75C225.52 27.865 226.103 27.6963 226.499 27.359C226.902 27.0217 227.104 26.5487 227.104 25.94C227.104 25.324 226.902 24.8473 226.499 24.51C226.103 24.1727 225.52 24.004 224.75 24.004H222.341L222.704 23.619V28.25Z" fill="black"/>
</svg>
