<svg width="19" height="19" viewBox="0 0 19 19" fill="none" xmlns="http://www.w3.org/2000/svg">
<path d="M13.0625 0H2.375C1.06519 0 0 1.06519 0 2.375V14.25C0 14.4804 0.133 14.6894 0.342 14.7879C0.421562 14.8247 0.50825 14.8438 0.59375 14.8438C0.730313 14.8438 0.865687 14.7974 0.97375 14.706L4.37119 11.875H13.0625C14.3723 11.875 15.4375 10.8098 15.4375 9.5V2.375C15.4375 1.06519 14.3723 0 13.0625 0Z" fill="white"/>
<path d="M17.2188 4.75H16.625V9.5C16.625 11.4641 15.0266 13.0625 13.0625 13.0625H4.80106L4.75 13.1053V14.8438C4.75 15.8258 5.54919 16.625 6.53125 16.625H15.2285L18.0346 18.8706C18.1426 18.9561 18.2744 19 18.4062 19C18.4929 19 18.5808 18.9798 18.6639 18.9406C18.8694 18.8421 19 18.6342 19 18.4062V6.53125C19 5.54919 18.2008 4.75 17.2188 4.75Z" fill="white"/>
</svg>
