<svg width="22" height="22" viewBox="0 0 22 22" fill="none" xmlns="http://www.w3.org/2000/svg">
<path d="M3.22468 6.86621C3.55525 6.86442 3.87338 6.99413 4.10847 7.22656L14.421 17.5264C14.5369 17.6428 14.6289 17.7807 14.6915 17.9326C14.7541 18.0846 14.7865 18.2478 14.7862 18.4121C14.7858 18.5763 14.7536 18.739 14.6905 18.8906C14.6273 19.0423 14.5344 19.1799 14.418 19.2959C14.3017 19.4118 14.1636 19.5038 14.0118 19.5664C13.8598 19.629 13.6967 19.6614 13.5323 19.6611C13.368 19.6608 13.2055 19.6276 13.0538 19.5645C12.9022 19.5013 12.7644 19.4092 12.6485 19.293L10.2745 16.9189C10.0659 16.7101 9.81766 16.5447 9.54499 16.4316C9.27223 16.3186 8.97991 16.2598 8.68464 16.2598C8.38934 16.2598 8.09706 16.3185 7.82429 16.4316C7.55158 16.5447 7.30341 16.71 7.09479 16.9189L2.6944 21.293C2.37402 21.5441 1.97284 21.6689 1.56647 21.6445C1.15981 21.62 0.775447 21.4482 0.487372 21.1602C0.199298 20.8721 0.0274791 20.4877 0.0029973 20.0811C-0.0213638 19.6747 0.103397 19.2735 0.35456 18.9531L4.75495 14.5527C4.96393 14.3441 5.13011 14.096 5.24323 13.8232C5.35628 13.5505 5.41412 13.2581 5.41413 12.9629C5.41413 12.6677 5.35624 12.3752 5.24323 12.1025C5.13012 11.8298 4.96388 11.5817 4.75495 11.373L2.35456 8.99902C2.11967 8.7666 1.98637 8.45056 1.98444 8.12012C1.98257 7.78946 2.11233 7.47148 2.34479 7.23633C2.5773 7.00117 2.89399 6.86809 3.22468 6.86621ZM21.6475 11.0596L15.5079 17.1992L4.44831 6.13965L10.588 0L21.6475 11.0596Z" fill="white"/>
</svg>
