<svg width="20" height="20" viewBox="0 0 20 20" fill="none" xmlns="http://www.w3.org/2000/svg">
<path d="M0 8.38031V19.3952C0 19.7293 0.270842 20.0002 0.604919 20.0002H3.32572V11.62C3.32572 10.1343 3.5562 8.87913 3.90608 7.77539H0.604919C0.270842 7.77539 0 8.04623 0 8.38031Z" fill="white"/>
<path d="M18.6549 10.5397C19.484 9.55434 19.5945 8.17931 18.8516 7.27746C18.434 6.77026 17.7927 6.47937 17.0919 6.47937H11.6778C11.8583 5.8657 12.2244 5.11774 12.2244 3.84462C12.2244 2.07048 11.4628 0 9.02769 0C8.73196 0 8.47959 0.213778 8.431 0.505471C7.81414 4.206 4.53516 6.277 4.53516 11.6199V20H14.9213C15.5914 20 16.2618 19.7437 16.8092 19.2784C17.7983 18.4377 18.1268 17.1207 17.6713 16.1175C18.3658 15.2923 18.5561 14.1939 18.1631 13.3287C18.8575 12.5035 19.0479 11.4048 18.6549 10.5397Z" fill="white"/>
</svg>
