<svg width="19" height="19" viewBox="0 0 19 19" fill="none" xmlns="http://www.w3.org/2000/svg">
<mask id="mask0_1677_754" style="mask-type:luminance" maskUnits="userSpaceOnUse" x="0" y="0" width="19" height="19">
<path d="M0 0H19V19H0V0Z" fill="white"/>
</mask>
<g mask="url(#mask0_1677_754)">
<path d="M0.820763 6.9499C-0.231919 6.41464 -0.231922 4.91086 0.820759 4.37559L7.77699 0.838517C8.85931 0.288203 10.1394 0.288203 11.2217 0.838517L18.1779 4.37559C19.2306 4.91086 19.2306 6.41464 18.1779 6.9499L11.2217 10.487C10.1394 11.0373 8.85931 11.0373 7.77699 10.487L0.820763 6.9499Z" fill="white"/>
<path fill-rule="evenodd" clip-rule="evenodd" d="M0.072763 9.34014C0.329775 8.83516 0.947513 8.6341 1.45252 8.89113L8.24097 12.3459C9.03152 12.7483 9.96682 12.7483 10.7574 12.3459L17.5458 8.89113C18.0508 8.6341 18.6686 8.83516 18.9255 9.34014C19.1826 9.84516 18.9815 10.4629 18.4765 10.7199L11.6881 14.1747C10.3127 14.8747 8.68557 14.8747 7.31024 14.1747L0.521795 10.7199C0.0167901 10.4629 -0.184249 9.84516 0.072763 9.34014Z" fill="white"/>
<path fill-rule="evenodd" clip-rule="evenodd" d="M0.072763 13.4065C0.329775 12.9016 0.947513 12.7005 1.45252 12.9575L8.24097 16.4123C9.03152 16.8147 9.96682 16.8147 10.7574 16.4123L17.5458 12.9575C18.0508 12.7005 18.6686 12.9016 18.9255 13.4065C19.1826 13.9116 18.9815 14.5293 18.4765 14.7863L11.6881 18.2411C10.3127 18.9411 8.68557 18.9411 7.31024 18.2411L0.521795 14.7863C0.0167901 14.5293 -0.184249 13.9116 0.072763 13.4065Z" fill="white"/>
</g>
</svg>
