<svg width="21" height="20" viewBox="0 0 21 20" fill="none" xmlns="http://www.w3.org/2000/svg">
<path fill-rule="evenodd" clip-rule="evenodd" d="M11.4264 0.595487L13.8981 5.96921C13.923 6.02662 13.9631 6.07638 14.014 6.11309C14.0649 6.1498 14.125 6.17219 14.1876 6.17787L20.0944 6.8532C20.3552 6.88169 20.5948 7.00922 20.7631 7.20912C20.9314 7.40908 21.0154 7.66589 20.9977 7.92593C20.9798 8.18604 20.8615 8.42916 20.6675 8.60456L16.2881 12.6005C16.2405 12.6418 16.2051 12.6951 16.1855 12.7548C16.1659 12.8145 16.1629 12.8783 16.1769 12.9395L17.3558 18.7306C17.4094 18.9857 17.3615 19.2514 17.2223 19.4722C17.0831 19.693 16.8632 19.8516 16.6089 19.9148C16.3545 19.9781 16.0854 19.9411 15.8579 19.8114L10.6796 16.9077C10.6251 16.8763 10.5632 16.8597 10.5002 16.8597C10.4372 16.8597 10.3752 16.8763 10.3208 16.9077L5.14137 19.8114V19.8114C4.91387 19.9406 4.64491 19.9774 4.39078 19.914C4.13664 19.8507 3.91699 19.6922 3.77778 19.4716C3.6385 19.251 3.59055 18.9855 3.6438 18.7306L4.82268 12.9395C4.83667 12.8782 4.8337 12.8144 4.81407 12.7547C4.7945 12.695 4.75898 12.6417 4.71137 12.6005L0.33314 8.60397C0.138838 8.42872 0.020314 8.18552 0.00237728 7.92534C-0.0155629 7.66517 0.0685588 7.40821 0.23702 7.20825C0.405473 7.00829 0.645261 6.8809 0.906176 6.85269L6.81391 6.1773C6.87663 6.17161 6.9366 6.14922 6.98752 6.11251C7.03852 6.07581 7.07857 6.02611 7.10343 5.96863L9.57407 0.595451C9.68157 0.357669 9.87757 0.170411 10.1209 0.0730635C10.3642 -0.0243545 10.636 -0.0243545 10.8793 0.0730635C11.1226 0.170411 11.3186 0.357669 11.4261 0.595451L11.4264 0.595487Z" fill="white"/>
</svg>
