<svg width="19" height="18" viewBox="0 0 19 18" fill="none" xmlns="http://www.w3.org/2000/svg">
<path d="M19 8.87486V15.9634C19 17.0857 18.0844 18 16.9605 18H2.04553C0.91766 18 0 17.0857 0 15.9634V5.77259C0 4.70689 0.766064 3.81678 1.7767 3.62099C1.91213 3.59475 2.0516 3.58062 2.19511 3.58062H6.1366C6.93096 3.58062 7.64245 3.99036 8.0366 4.67863L9.03106 6.39224C9.14223 6.58803 9.30798 6.68289 9.5283 6.68289H16.811C16.9545 6.68289 17.0939 6.69702 17.2294 6.72326C18.236 6.91904 19 7.80915 19 8.87486ZM6.1366 1.96591C7.51915 1.96591 8.75213 2.68042 9.43936 3.87531L10.1306 5.06818H16.811C16.9524 5.06818 17.0919 5.07625 17.2294 5.0924V2.2828C17.2294 1.02332 16.2046 0 14.9433 0H4.06277C2.90053 0 1.94043 0.867908 1.79692 1.98811C1.9283 1.97197 2.0617 1.96591 2.19511 1.96591H6.1366Z" fill="white"/>
</svg>
