<svg width="16" height="16" viewBox="0 0 16 16" fill="none" xmlns="http://www.w3.org/2000/svg">
<g clip-path="url(#clip0_1225_577)">
<path d="M13.929 0.940918H12.5173V2.35268C12.5173 2.63504 12.282 2.82327 12.0467 2.82327C11.8114 2.82327 11.5761 2.63504 11.5761 2.35268V0.940918H4.04669V2.35268C4.04669 2.63504 3.81139 2.82327 3.5761 2.82327C3.3408 2.82327 3.10551 2.63504 3.10551 2.35268V0.940918H1.69374C0.987862 0.940918 0.470215 1.55268 0.470215 2.35268V4.0468H15.529V2.35268C15.529 1.55268 14.682 0.940918 13.929 0.940918ZM0.470215 5.03504V13.6468C0.470215 14.4939 0.987862 15.0586 1.7408 15.0586H13.9761C14.729 15.0586 15.5761 14.4468 15.5761 13.6468V5.03504H0.470215ZM4.65845 12.9409H3.52904C3.3408 12.9409 3.15257 12.7997 3.15257 12.5644V11.388C3.15257 11.1997 3.29374 11.0115 3.52904 11.0115H4.70551C4.89374 11.0115 5.08198 11.1527 5.08198 11.388V12.5644C5.03492 12.7997 4.89374 12.9409 4.65845 12.9409ZM4.65845 8.70562H3.52904C3.3408 8.70562 3.15257 8.56445 3.15257 8.32915V7.15268C3.15257 6.96445 3.29374 6.77621 3.52904 6.77621H4.70551C4.89374 6.77621 5.08198 6.91739 5.08198 7.15268V8.32915C5.03492 8.56445 4.89374 8.70562 4.65845 8.70562ZM8.42316 12.9409H7.24669C7.05845 12.9409 6.87022 12.7997 6.87022 12.5644V11.388C6.87022 11.1997 7.01139 11.0115 7.24669 11.0115H8.42316C8.61139 11.0115 8.79963 11.1527 8.79963 11.388V12.5644C8.79963 12.7997 8.65845 12.9409 8.42316 12.9409ZM8.42316 8.70562H7.24669C7.05845 8.70562 6.87022 8.56445 6.87022 8.32915V7.15268C6.87022 6.96445 7.01139 6.77621 7.24669 6.77621H8.42316C8.61139 6.77621 8.79963 6.91739 8.79963 7.15268V8.32915C8.79963 8.56445 8.65845 8.70562 8.42316 8.70562ZM12.1879 12.9409H11.0114C10.8232 12.9409 10.6349 12.7997 10.6349 12.5644V11.388C10.6349 11.1997 10.7761 11.0115 11.0114 11.0115H12.1879C12.3761 11.0115 12.5643 11.1527 12.5643 11.388V12.5644C12.5643 12.7997 12.4232 12.9409 12.1879 12.9409ZM12.1879 8.70562H11.0114C10.8232 8.70562 10.6349 8.56445 10.6349 8.32915V7.15268C10.6349 6.96445 10.7761 6.77621 11.0114 6.77621H12.1879C12.3761 6.77621 12.5643 6.91739 12.5643 7.15268V8.32915C12.5643 8.56445 12.4232 8.70562 12.1879 8.70562Z" fill="white"/>
</g>
<defs>
<clipPath id="clip0_1225_577">
<rect width="16" height="16" fill="white"/>
</clipPath>
</defs>
</svg>
