<svg width="16" height="16" viewBox="0 0 16 16" fill="none" xmlns="http://www.w3.org/2000/svg">
<g clip-path="url(#clip0_1225_581)">
<path d="M13.6569 2.34316C12.1459 0.832156 10.1369 0 8 0C5.86312 0 3.85413 0.832156 2.34313 2.34316C0.832125 3.85416 0 5.86312 0 8C0 10.1369 0.832125 12.1459 2.34313 13.6568C3.85413 15.1678 5.86312 16 8 16C10.1369 16 12.1459 15.1678 13.6569 13.6568C15.1679 12.1458 16 10.1369 16 8C16 5.86312 15.1679 3.85413 13.6569 2.34316ZM8 14.4298C4.45459 14.4298 1.57025 11.5454 1.57025 8C1.57025 7.99419 1.57044 7.98844 1.57047 7.98269C1.57047 7.98122 1.57025 7.97981 1.57025 7.97834C1.57025 7.97588 1.57056 7.9735 1.57062 7.97106C1.58622 4.46816 4.41706 1.61825 7.91262 1.57138C7.91994 1.57103 7.92719 1.57028 7.93459 1.57028C7.93903 1.57028 7.94334 1.57081 7.94775 1.57094C7.96519 1.57081 7.98256 1.57028 8.00003 1.57028C11.5454 1.57028 14.4298 4.45466 14.4298 8.00003C14.4298 11.5454 11.5454 14.4298 8 14.4298Z" fill="white"/>
<path d="M12.8844 8.38632C12.623 8.38632 12.411 8.17438 12.411 7.91295C12.411 7.65151 12.623 7.43957 12.8844 7.43957H13.455C13.187 4.8122 11.0562 2.72791 8.40838 2.53223V3.02895C8.40838 3.29038 8.19645 3.50232 7.93501 3.50232C7.67357 3.50232 7.46163 3.29038 7.46163 3.02895V2.54354C4.85301 2.79916 2.7751 4.89048 2.54001 7.50498H3.05101C3.31245 7.50498 3.52438 7.71691 3.52438 7.97835C3.52438 8.23979 3.31245 8.45173 3.05101 8.45173H2.53613C2.75379 11.1083 4.87335 13.2344 7.52707 13.4624V12.8623C7.52707 12.6009 7.73901 12.3889 8.00045 12.3889C8.26188 12.3889 8.47382 12.6009 8.47382 12.8623V13.4624C11.1493 13.2325 13.2817 11.0733 13.4697 8.38632H12.8844ZM9.9167 6.75326L8.3352 8.33479C8.24641 8.42357 8.12604 8.47345 8.00048 8.47345C7.87495 8.47345 7.75451 8.42357 7.66576 8.33479L4.91285 5.58188C4.72798 5.39704 4.72798 5.09732 4.91285 4.91245C5.0977 4.72757 5.39741 4.72757 5.58229 4.91245L8.00051 7.33063L9.24732 6.08382C9.43216 5.89895 9.73188 5.89895 9.91676 6.08382C10.1016 6.26866 10.1016 6.56841 9.9167 6.75326Z" fill="white"/>
</g>
<defs>
<clipPath id="clip0_1225_581">
<rect width="16" height="16" fill="white"/>
</clipPath>
</defs>
</svg>
