<svg width="21" height="21" viewBox="0 0 21 21" fill="none" xmlns="http://www.w3.org/2000/svg">
<path fill-rule="evenodd" clip-rule="evenodd" d="M11.4264 1.31131L13.8981 6.68503C13.923 6.74244 13.9631 6.7922 14.014 6.82891C14.0649 6.86562 14.125 6.88801 14.1876 6.89369L20.0944 7.56902C20.3552 7.59751 20.5948 7.72504 20.7631 7.92494C20.9314 8.1249 21.0154 8.38171 20.9977 8.64175C20.9798 8.90187 20.8615 9.14498 20.6675 9.32038L16.2881 13.3164C16.2405 13.3576 16.2051 13.4109 16.1855 13.4706C16.1659 13.5303 16.1629 13.5941 16.1769 13.6553L17.3558 19.4465C17.4094 19.7015 17.3615 19.9672 17.2223 20.188C17.0831 20.4088 16.8632 20.5674 16.6089 20.6306C16.3545 20.6939 16.0854 20.6569 15.8579 20.5273L10.6796 17.6235C10.6251 17.5921 10.5632 17.5755 10.5002 17.5755C10.4372 17.5755 10.3752 17.5921 10.3208 17.6235L5.14137 20.5273V20.5272C4.91387 20.6564 4.64491 20.6932 4.39078 20.6299C4.13664 20.5665 3.91699 20.408 3.77778 20.1874C3.6385 19.9668 3.59055 19.7013 3.6438 19.4464L4.82268 13.6553C4.83667 13.594 4.8337 13.5302 4.81407 13.4706C4.7945 13.4108 4.75898 13.3576 4.71137 13.3163L0.33314 9.31979C0.138838 9.14454 0.020314 8.90134 0.00237728 8.64116C-0.0155629 8.38099 0.0685588 8.12403 0.23702 7.92407C0.405473 7.72411 0.645261 7.59672 0.906176 7.56851L6.81391 6.89312C6.87663 6.88743 6.9366 6.86504 6.98752 6.82833C7.03852 6.79163 7.07857 6.74193 7.10343 6.68445L9.57407 1.31127C9.68157 1.07349 9.87757 0.886232 10.1209 0.788884C10.3642 0.691466 10.636 0.691466 10.8793 0.788884C11.1226 0.886232 11.3186 1.07349 11.4261 1.31127L11.4264 1.31131Z" fill="white"/>
</svg>
